<svg width="16" height="16" viewBox="0 0 16 16" fill="none" xmlns="http://www.w3.org/2000/svg">
<path d="M3.77942 13.9187C3.44716 14.1406 3.00177 13.9024 3.00177 13.5029V4.01174C3.00177 2.90856 3.89502 2.01372 4.99819 2.01174L10.9982 2.00098C12.1028 1.99901 12.9998 2.89284 13.0018 3.9974V13.5029C13.0018 13.9024 12.5564 14.1406 12.2241 13.9187L8.00177 11.0995L3.77942 13.9187ZM12.0018 4.00098L11.9948 3.88259C11.9362 3.38535 11.5128 3.00007 11 3.00098L4.99998 3.01174C4.44839 3.01273 4.00177 3.46015 4.00177 4.01174V12.5679L7.72412 10.0825C7.89221 9.97024 8.11133 9.97024 8.27942 10.0825L12.0018 12.5679V4.00098Z" fill="#212121"/>
</svg>
