<svg fill="none" height="15" viewBox="0 0 14 15" width="14" xmlns="http://www.w3.org/2000/svg" xmlns:xlink="http://www.w3.org/1999/xlink"><clipPath id="a"><path d="m0 .942993h14v14h-14z"/></clipPath><g clip-path="url(#a)" stroke="#000001" stroke-linecap="round" stroke-linejoin="round"><path d="m13.5 11.443v2c0 .2652-.1054.5196-.2929.7071s-.4419.2929-.7071.2929h-2"/><path d="m10.5 1.44299h2c.2652 0 .5196.10536.7071.2929.1875.18753.2929.44189.2929.7071v2"/><path d="m.5 4.44299v-2c0-.26521.105357-.51957.292893-.7071.187537-.18754.441887-.2929.707107-.2929h2"/><path d="m3.5 14.443h-2c-.26522 0-.51957-.1054-.707107-.2929-.187536-.1875-.292893-.4419-.292893-.7071v-2"/><path d="m7 7.44299c1.10457 0 2-.89543 2-2s-.89543-2-2-2-2 .89543-2 2 .89543 2 2 2z"/><path d="m10.16 11.443c-.28435-.5972-.73211-1.1016-1.29139-1.4547-.55927-.35313-1.20716-.54055-1.86858-.54055-.66143 0-1.30932.18742-1.86859.54055-.55927.3531-1.00704.8575-1.29141 1.4547"/></g></svg>