<?xml version="1.0" encoding="UTF-8"?>
<!DOCTYPE svg PUBLIC "-//W3C//DTD SVG 1.1//EN" "http://www.w3.org/Graphics/SVG/1.1/DTD/svg11.dtd">
<svg xmlns="http://www.w3.org/2000/svg" version="1.1" width="427px" height="343px" style="shape-rendering:geometricPrecision; text-rendering:geometricPrecision; image-rendering:optimizeQuality; fill-rule:evenodd; clip-rule:evenodd" xmlns:xlink="http://www.w3.org/1999/xlink">
<g><path style="opacity:0.836" fill="#010000" d="M 217.5,2.5 C 241.603,2.43649 252.769,14.4365 251,38.5C 249.542,40.96 247.709,43.1266 245.5,45C 234.616,46.4528 229.449,41.6195 230,30.5C 229.163,28.6494 228.329,26.8161 227.5,25C 223.683,23.9766 220.183,24.4766 217,26.5C 216.176,42.7408 216.342,58.9075 217.5,75C 251.324,76.4161 284.658,81.0828 317.5,89C 323.025,91.9188 324.858,96.4188 323,102.5C 321.021,106.819 317.687,109.152 313,109.5C 258.488,95.9543 203.321,92.7877 147.5,100C 136.376,101.798 125.376,104.131 114.5,107C 105.759,109.637 100.425,106.637 98.5,98C 98.8714,94.545 100.205,91.545 102.5,89C 131.121,80.6454 160.287,76.4787 190,76.5C 192.007,75.3313 194.173,74.6646 196.5,74.5C 196.333,56.4969 196.5,38.4969 197,20.5C 200.588,10.7425 207.421,4.74254 217.5,2.5 Z"/></g>
<g><path style="opacity:0.771" fill="#111208" d="M 253.5,79.5 C 256.518,79.3354 259.518,79.502 262.5,80C 261.056,81.0637 259.389,81.5637 257.5,81.5C 255.667,81.4146 254.334,80.7479 253.5,79.5 Z"/></g>
<g><path style="opacity:0.925" fill="#000000" d="M -0.5,126.5 C -0.5,124.5 -0.5,122.5 -0.5,120.5C 0.267389,119.828 0.934056,118.995 1.5,118C 28.728,110.562 55.8947,103.396 83,96.5C 84.5615,96.6032 86.0615,96.9366 87.5,97.5C 89.9728,104.936 94.3062,111.102 100.5,116C 106.273,119.361 112.106,122.528 118,125.5C 118.667,126.167 118.667,126.833 118,127.5C 99.741,136.797 82.0744,147.13 65,158.5C 64.3333,161.167 64.3333,163.833 65,166.5C 76.28,185.401 87.28,204.401 98,223.5C 101.373,226.886 105.206,227.386 109.5,225C 112.968,223.03 116.301,220.864 119.5,218.5C 120.478,218.977 121.311,219.643 122,220.5C 121.545,247.132 121.378,273.798 121.5,300.5C 113.134,299.496 104.801,297.996 96.5,296C 67.2092,288.219 38.0426,280.053 9,271.5C 8.5,270.5 8,269.5 7.5,268.5C 15.8362,237.812 24.1695,207.145 32.5,176.5C 31.8333,176.167 31.1667,175.833 30.5,175.5C 26.3247,176.079 22.3247,177.079 18.5,178.5C 16.0884,178.594 14.255,177.594 13,175.5C 8.79825,158.941 4.29825,142.607 -0.5,126.5 Z"/></g>
<g><path style="opacity:0.943" fill="#000000" d="M 344.5,98.5 C 343.596,99.209 343.263,100.209 343.5,101.5C 344.833,101.5 346.167,101.5 347.5,101.5C 347.5,100.5 347.5,99.5 347.5,98.5C 355.005,99.5675 362.338,100.901 369.5,102.5C 368.167,102.5 366.833,102.5 365.5,102.5C 365.5,103.5 365.5,104.5 365.5,105.5C 368.448,105.777 371.281,105.444 374,104.5C 374.232,105.737 374.732,106.737 375.5,107.5C 379.048,107.905 382.381,107.405 385.5,106C 384.584,105.722 383.918,105.222 383.5,104.5C 385.099,104.232 386.432,104.566 387.5,105.5C 386.596,106.209 386.263,107.209 386.5,108.5C 394.923,109.357 403.256,110.69 411.5,112.5C 413.764,113.219 416.097,113.552 418.5,113.5C 420.284,113.893 421.95,114.559 423.5,115.5C 423.235,122.624 422.235,129.624 420.5,136.5C 419.732,135.737 419.232,134.737 419,133.5C 418.297,135.929 418.463,138.262 419.5,140.5C 419.702,142.95 419.369,145.283 418.5,147.5C 417.778,147.082 417.278,146.416 417,145.5C 415.8,152.15 415.133,158.816 415,165.5C 415.21,163.942 415.71,162.609 416.5,161.5C 416.655,165.388 415.655,168.888 413.5,172C 412,172.5 410.5,173 409,173.5C 404.686,172.759 400.519,171.759 396.5,170.5C 396.708,174.121 397.708,177.454 399.5,180.5C 398.425,179.438 397.425,179.438 396.5,180.5C 398.096,182.96 399.262,185.626 400,188.5C 400.483,187.552 400.649,186.552 400.5,185.5C 407.132,201.345 413.466,217.345 419.5,233.5C 418.167,233.5 416.833,233.5 415.5,233.5C 415.5,234.833 415.5,236.167 415.5,237.5C 417.38,237.771 418.713,237.104 419.5,235.5C 421.833,240.833 424.167,246.167 426.5,251.5C 426.5,256.5 426.5,261.5 426.5,266.5C 386.891,280.831 347.224,295.331 307.5,310C 304.571,310.777 301.737,310.61 299,309.5C 298.333,279.833 298.333,250.167 299,220.5C 300.726,219.424 302.559,219.257 304.5,220C 307.502,222.503 310.835,224.503 314.5,226C 316.971,226.706 319.305,226.373 321.5,225C 333.893,204.379 345.893,183.546 357.5,162.5C 356.747,160.247 355.414,158.413 353.5,157C 339.425,148.968 325.425,140.968 311.5,133C 309.639,131.972 308.305,130.472 307.5,128.5C 312.718,124.632 317.885,120.632 323,116.5C 325.333,113.5 327.667,110.5 330,107.5C 330.676,103.599 332.176,100.099 334.5,97C 338.033,96.7568 341.367,97.2568 344.5,98.5 Z"/></g>
<g><path style="opacity:0.782" fill="#201005" d="M 344.5,98.5 C 345.5,98.5 346.5,98.5 347.5,98.5C 347.5,99.5 347.5,100.5 347.5,101.5C 346.167,101.5 344.833,101.5 343.5,101.5C 343.263,100.209 343.596,99.209 344.5,98.5 Z"/></g>
<g><path style="opacity:0.252" fill="#160802" d="M 369.5,102.5 C 373.16,102.159 376.493,102.825 379.5,104.5C 377.545,104.799 376.211,105.799 375.5,107.5C 374.732,106.737 374.232,105.737 374,104.5C 371.281,105.444 368.448,105.777 365.5,105.5C 365.5,104.5 365.5,103.5 365.5,102.5C 366.833,102.5 368.167,102.5 369.5,102.5 Z"/></g>
<g><path style="opacity:0.796" fill="#271909" d="M 379.5,104.5 C 380.833,104.5 382.167,104.5 383.5,104.5C 383.918,105.222 384.584,105.722 385.5,106C 382.381,107.405 379.048,107.905 375.5,107.5C 376.211,105.799 377.545,104.799 379.5,104.5 Z"/></g>
<g><path style="opacity:0.96" fill="#000000" d="M 259.5,107.5 C 289.779,124.643 320.112,141.809 350.5,159C 352.991,161.968 353.157,165.135 351,168.5C 340.505,186.33 330.005,204.164 319.5,222C 317.5,222.667 315.5,222.667 313.5,222C 307.373,218.526 301.54,214.693 296,210.5C 295.667,253.167 295.333,295.833 295,338.5C 267.404,339.165 239.738,339.498 212,339.5C 183.749,339.659 155.582,339.159 127.5,338C 126.67,296.238 126.17,254.404 126,212.5C 125.667,212.167 125.333,211.833 125,211.5C 118.933,215.188 112.767,218.688 106.5,222C 104.765,222.651 103.098,222.485 101.5,221.5C 90.0284,202.236 79.0284,182.736 68.5,163C 68.8623,161.775 69.3623,160.609 70,159.5C 99.4828,142.512 128.983,125.679 158.5,109C 159.833,108.333 161.167,108.333 162.5,109C 175.324,124.155 191.824,131.655 212,131.5C 223.896,130.855 235.063,127.689 245.5,122C 251.07,117.932 255.737,113.098 259.5,107.5 Z"/></g>
<g><path style="opacity:0.437" fill="#170b02" d="M 387.5,105.5 C 396.332,106.57 404.998,107.903 413.5,109.5C 412.449,110.222 411.782,111.222 411.5,112.5C 403.256,110.69 394.923,109.357 386.5,108.5C 386.263,107.209 386.596,106.209 387.5,105.5 Z"/></g>
<g><path style="opacity:0.357" fill="#2c1f0c" d="M 413.5,109.5 C 413.833,109.5 414.167,109.5 414.5,109.5C 416.297,110.393 417.63,111.726 418.5,113.5C 416.097,113.552 413.764,113.219 411.5,112.5C 411.782,111.222 412.449,110.222 413.5,109.5 Z"/></g>
<g><path style="opacity:0.624" fill="#131102" d="M 414.5,109.5 C 417.238,109.851 419.904,110.518 422.5,111.5C 423.429,112.689 423.762,114.022 423.5,115.5C 421.95,114.559 420.284,113.893 418.5,113.5C 417.63,111.726 416.297,110.393 414.5,109.5 Z"/></g>
<g><path style="opacity:0.376" fill="#1a1908" d="M 420.5,136.5 C 420.768,138.099 420.434,139.432 419.5,140.5C 418.463,138.262 418.297,135.929 419,133.5C 419.232,134.737 419.732,135.737 420.5,136.5 Z"/></g>
<g><path style="opacity:0.163" fill="#130f04" d="M 418.5,147.5 C 418.154,152.216 417.487,156.883 416.5,161.5C 415.71,162.609 415.21,163.942 415,165.5C 415.133,158.816 415.8,152.15 417,145.5C 417.278,146.416 417.778,147.082 418.5,147.5 Z"/></g>
<g><path style="opacity:0.192" fill="#180e03" d="M 399.5,180.5 C 400.301,182.042 400.634,183.708 400.5,185.5C 400.649,186.552 400.483,187.552 400,188.5C 399.262,185.626 398.096,182.96 396.5,180.5C 397.425,179.438 398.425,179.438 399.5,180.5 Z"/></g>
<g><path style="opacity:0.953" fill="#1b0a03" d="M 419.5,233.5 C 419.5,234.167 419.5,234.833 419.5,235.5C 418.713,237.104 417.38,237.771 415.5,237.5C 415.5,236.167 415.5,234.833 415.5,233.5C 416.833,233.5 418.167,233.5 419.5,233.5 Z"/></g>
</svg>
