<?xml version="1.0" encoding="UTF-8"?>
<!DOCTYPE svg PUBLIC "-//W3C//DTD SVG 1.1//EN" "http://www.w3.org/Graphics/SVG/1.1/DTD/svg11.dtd">
<svg xmlns="http://www.w3.org/2000/svg" version="1.1" width="602px" height="479px" style="shape-rendering:geometricPrecision; text-rendering:geometricPrecision; image-rendering:optimizeQuality; fill-rule:evenodd; clip-rule:evenodd" xmlns:xlink="http://www.w3.org/1999/xlink">
<g><path style="opacity:0.88" fill="#010000" d="M 359.5,139.5 C 358.391,140.29 357.058,140.79 355.5,141C 358.833,141.667 362.167,141.667 365.5,141C 364.944,140.617 364.611,140.117 364.5,139.5C 377.88,141.341 391.213,143.508 404.5,146C 410.975,147.368 417.309,149.368 423.5,152C 427.299,159.281 425.632,164.948 418.5,169C 416.167,169.667 413.833,169.667 411.5,169C 363.638,156.969 314.972,153.303 265.5,158C 247.495,160.147 229.661,163.314 212,167.5C 205.657,167.491 202.157,164.324 201.5,158C 201.874,152.266 204.874,148.933 210.5,148C 239.746,141.027 269.412,136.861 299.5,135.5C 299.037,116.099 299.537,96.7654 301,77.5C 306.071,68.0133 314.071,63.3466 325,63.5C 342.963,65.1299 352.463,74.9633 353.5,93C 353.072,102.101 348.406,106.101 339.5,105C 334.217,101.662 332.051,96.8288 333,90.5C 332.163,88.6494 331.329,86.8161 330.5,85C 327.167,84.3333 323.833,84.3333 320.5,85C 320,85.5 319.5,86 319,86.5C 318.333,102.833 318.333,119.167 319,135.5C 332.511,136.43 346.011,137.763 359.5,139.5 Z"/></g>
<g><path style="opacity:0.071" fill="#101205" d="M 359.5,139.5 C 361.167,139.5 362.833,139.5 364.5,139.5C 364.611,140.117 364.944,140.617 365.5,141C 362.167,141.667 358.833,141.667 355.5,141C 357.058,140.79 358.391,140.29 359.5,139.5 Z"/></g>
<g><path style="opacity:0.946" fill="#000000" d="M 109.5,177.5 C 108.026,178.584 107.193,179.918 107,181.5C 111.218,178.265 115.718,176.765 120.5,177C 121.756,176.583 122.423,175.75 122.5,174.5C 143.287,168.206 164.287,162.54 185.5,157.5C 187.1,157.551 188.6,157.884 190,158.5C 192.179,166.012 196.346,172.179 202.5,177C 208.415,180.456 214.415,183.623 220.5,186.5C 203.752,196.6 186.752,206.434 169.5,216C 166.098,219.719 165.598,223.886 168,228.5C 178.977,247.636 190.143,266.636 201.5,285.5C 204.208,287.436 207.208,287.936 210.5,287C 214.332,284.25 218.332,281.75 222.5,279.5C 223.192,280.025 223.692,280.692 224,281.5C 223.536,307.79 223.37,334.124 223.5,360.5C 215.492,359.335 207.492,357.835 199.5,356C 170.209,348.219 141.043,340.053 112,331.5C 111.5,330.5 111,329.5 110.5,328.5C 118.992,298.057 127.325,267.557 135.5,237C 135.37,235.941 134.87,235.108 134,234.5C 129.634,235.835 125.301,237.168 121,238.5C 118.849,238.357 117.182,237.357 116,235.5C 111.392,218.17 106.892,200.836 102.5,183.5C 102.909,179.439 105.242,177.439 109.5,177.5 Z"/></g>
<g><path style="opacity:0.956" fill="#000000" d="M 446.5,159.5 C 445.957,159.56 445.624,159.893 445.5,160.5C 447.074,161.631 448.741,161.798 450.5,161C 449.944,160.617 449.611,160.117 449.5,159.5C 455.076,159.871 460.409,160.871 465.5,162.5C 465.577,163.75 466.244,164.583 467.5,165C 471.07,165.262 474.403,165.429 477.5,165.5C 479.635,167.369 482.302,168.036 485.5,167.5C 486.496,167.586 487.329,167.252 488,166.5C 490.67,168.797 493.836,169.797 497.5,169.5C 498.496,169.586 499.329,169.252 500,168.5C 502.251,170.364 504.918,171.364 508,171.5C 509.376,171.316 510.209,170.649 510.5,169.5C 512.735,169.205 514.735,169.539 516.5,170.5C 514.712,170.215 513.045,170.548 511.5,171.5C 512.689,172.429 514.022,172.762 515.5,172.5C 516.274,173.147 517.274,173.48 518.5,173.5C 520.355,173.66 521.688,172.993 522.5,171.5C 523.496,171.414 524.329,171.748 525,172.5C 525.167,174.167 525.333,175.833 525.5,177.5C 525.305,183.128 524.305,188.461 522.5,193.5C 520.717,197.617 519.383,202.117 518.5,207C 518.684,208.376 519.351,209.209 520.5,209.5C 519.267,215.092 518.434,220.759 518,226.5C 517.749,230.585 515.582,232.918 511.5,233.5C 507.062,232.599 502.729,231.599 498.5,230.5C 498.35,234.195 499.35,237.528 501.5,240.5C 500.233,239.913 499.233,239.913 498.5,240.5C 499.827,245.301 501.827,249.801 504.5,254C 502.973,256.338 503.639,257.838 506.5,258.5C 507.107,258.376 507.44,258.043 507.5,257.5C 512.191,269.229 516.524,281.229 520.5,293.5C 518.656,294.204 518.156,295.537 519,297.5C 519.986,296.829 521.153,296.829 522.5,297.5C 525.878,305.293 528.878,313.293 531.5,321.5C 531.24,323.187 530.573,324.687 529.5,326C 488.484,341.053 447.317,355.886 406,370.5C 404.564,370.441 403.231,370.108 402,369.5C 401.5,339.835 401.333,310.169 401.5,280.5C 403.199,280.34 404.866,280.506 406.5,281C 410.591,283.712 414.924,285.879 419.5,287.5C 421.33,287.224 422.997,286.557 424.5,285.5C 436.501,265.316 448.334,244.983 460,224.5C 460.359,221.38 459.192,218.88 456.5,217C 442.491,208.996 428.491,200.996 414.5,193C 412.639,191.972 411.305,190.472 410.5,188.5C 417.827,184.243 424.327,178.909 430,172.5C 432.766,168.083 434.933,163.416 436.5,158.5C 440.06,157.32 443.393,157.653 446.5,159.5 Z"/></g>
<g><path style="opacity:0.761" fill="#221307" d="M 446.5,159.5 C 447.5,159.5 448.5,159.5 449.5,159.5C 449.611,160.117 449.944,160.617 450.5,161C 448.741,161.798 447.074,161.631 445.5,160.5C 445.624,159.893 445.957,159.56 446.5,159.5 Z"/></g>
<g><path style="opacity:0.095" fill="#180802" d="M 465.5,162.5 C 470.177,162.835 474.844,163.335 479.5,164C 480.416,164.278 481.082,164.778 481.5,165.5C 480.167,165.5 478.833,165.5 477.5,165.5C 474.403,165.429 471.07,165.262 467.5,165C 466.244,164.583 465.577,163.75 465.5,162.5 Z"/></g>
<g><path style="opacity:0.812" fill="#341f0e" d="M 477.5,165.5 C 478.833,165.5 480.167,165.5 481.5,165.5C 482.833,165.5 484.167,165.5 485.5,165.5C 485.5,166.167 485.5,166.833 485.5,167.5C 482.302,168.036 479.635,167.369 477.5,165.5 Z"/></g>
<g><path style="opacity:0.812" fill="#211305" d="M 485.5,165.5 C 489.154,165.942 492.821,166.276 496.5,166.5C 497.11,167.391 497.443,168.391 497.5,169.5C 493.836,169.797 490.67,168.797 488,166.5C 487.329,167.252 486.496,167.586 485.5,167.5C 485.5,166.833 485.5,166.167 485.5,165.5 Z"/></g>
<g><path style="opacity:0.971" fill="#000000" d="M 361.5,168.5 C 392.397,185.391 423.064,202.725 453.5,220.5C 454.767,223.239 454.601,225.906 453,228.5C 442.505,246.33 432.005,264.164 421.5,282C 419.833,282.667 418.167,282.667 416.5,282C 410.331,278.416 404.331,274.583 398.5,270.5C 397.667,313.163 397.167,355.829 397,398.5C 369.571,399.165 342.071,399.498 314.5,399.5C 286.415,399.659 258.415,399.159 230.5,398C 229.67,356.238 229.17,314.404 229,272.5C 228.667,271.833 228.333,271.167 228,270.5C 221.825,274.891 215.325,278.724 208.5,282C 207.101,282.595 205.768,282.428 204.5,281.5C 193.196,262.737 182.362,243.737 172,224.5C 171.333,223.5 171.333,222.5 172,221.5C 201.83,203.348 232.163,186.015 263,169.5C 263.833,169.667 264.667,169.833 265.5,170C 274.102,181.813 285.768,188.813 300.5,191C 319.973,194.399 337.64,190.399 353.5,179C 356.383,175.624 359.049,172.124 361.5,168.5 Z"/></g>
<g><path style="opacity:0.167" fill="#170b02" d="M 496.5,166.5 C 501.084,167.869 505.75,168.869 510.5,169.5C 510.209,170.649 509.376,171.316 508,171.5C 504.918,171.364 502.251,170.364 500,168.5C 499.329,169.252 498.496,169.586 497.5,169.5C 497.443,168.391 497.11,167.391 496.5,166.5 Z"/></g>
<g><path style="opacity:0.204" fill="#241507" d="M 516.5,170.5 C 517.167,170.5 517.833,170.5 518.5,170.5C 517.5,171.167 516.5,171.833 515.5,172.5C 514.022,172.762 512.689,172.429 511.5,171.5C 513.045,170.548 514.712,170.215 516.5,170.5 Z"/></g>
<g><path style="opacity:0.761" fill="#2a240f" d="M 518.5,170.5 C 519.708,171.234 521.041,171.567 522.5,171.5C 521.688,172.993 520.355,173.66 518.5,173.5C 517.274,173.48 516.274,173.147 515.5,172.5C 516.5,171.833 517.5,171.167 518.5,170.5 Z"/></g>
<g><path style="opacity:0.46" fill="#130603" d="M 122.5,174.5 C 122.423,175.75 121.756,176.583 120.5,177C 115.718,176.765 111.218,178.265 107,181.5C 107.193,179.918 108.026,178.584 109.5,177.5C 113.659,175.867 117.992,174.867 122.5,174.5 Z"/></g>
<g><path style="opacity:0.488" fill="#161004" d="M 522.5,193.5 C 522.267,198.894 521.601,204.227 520.5,209.5C 519.351,209.209 518.684,208.376 518.5,207C 519.383,202.117 520.717,197.617 522.5,193.5 Z"/></g>
<g><path style="opacity:0.373" fill="#110a02" d="M 501.5,240.5 C 503.5,246.167 505.5,251.833 507.5,257.5C 507.44,258.043 507.107,258.376 506.5,258.5C 503.639,257.838 502.973,256.338 504.5,254C 501.827,249.801 499.827,245.301 498.5,240.5C 499.233,239.913 500.233,239.913 501.5,240.5 Z"/></g>
<g><path style="opacity:0.169" fill="#220e03" d="M 520.5,293.5 C 521.345,294.671 522.011,296.005 522.5,297.5C 521.153,296.829 519.986,296.829 519,297.5C 518.156,295.537 518.656,294.204 520.5,293.5 Z"/></g>
</svg>
