<svg fill="none" height="24" viewBox="0 0 24 24" width="24" xmlns="http://www.w3.org/2000/svg"><g stroke="#141b34" stroke-width="1.5"><path d="m5 9.97873c0 1.11627 1.79086 2.02127 4 2.02127v-2.02127c0-.99419 0-1.49128-.39748-1.79454-.39748-.30327-.79152-.18984-1.5796.03702-1.20823.34781-2.02292 1.00459-2.02292 1.75752z" stroke-linejoin="round"/><path d="m16 8.5c0 1.933-3.134 3.5-7 3.5-3.86599 0-7-1.567-7-3.5s3.13401-3.5 7-3.5c3.866 0 7 1.567 7 3.5z"/><path d="m2 9v6.6667c0 1.8409 3.13401 3.3333 7 3.3333h11c.9428 0 1.4142 0 1.7071-.2929s.2929-.7643.2929-1.7071v-3c0-.9428 0-1.4142-.2929-1.7071s-.7643-.2929-1.7071-.2929h-11"/><path d="m18 19v-2m-4 2v-2m-4 2v-2m-4 1.5v-2" stroke-linecap="round" stroke-linejoin="round"/></g></svg>