<?xml version="1.0" encoding="UTF-8"?>
<!DOCTYPE svg PUBLIC "-//W3C//DTD SVG 1.1//EN" "http://www.w3.org/Graphics/SVG/1.1/DTD/svg11.dtd">
<svg xmlns="http://www.w3.org/2000/svg" version="1.1" width="200px" height="174px" style="shape-rendering:geometricPrecision; text-rendering:geometricPrecision; image-rendering:optimizeQuality; fill-rule:evenodd; clip-rule:evenodd" xmlns:xlink="http://www.w3.org/1999/xlink">
<g><path style="opacity:0.229" fill="#917e70" d="M 196.5,13.5 C 165.007,12.1668 133.174,11.5001 101,11.5C 68.9982,11.5 37.1649,11.8333 5.5,12.5C 4.95691,12.44 4.62358,12.1067 4.5,11.5C 69.1641,10.3334 133.831,10.1667 198.5,11C 197.934,11.9947 197.267,12.828 196.5,13.5 Z"/></g>
<g><path style="opacity:1" fill="#5a3e2d" d="M 196.5,13.5 C 177.987,44.538 158.987,75.2047 139.5,105.5C 139.5,104.5 139.5,103.5 139.5,102.5C 137.058,102.881 136.391,102.214 137.5,100.5C 136.388,99.7348 135.721,98.7348 135.5,97.5C 142.434,85.1399 149.767,72.9732 157.5,61C 151.474,59.9604 145.474,59.7938 139.5,60.5C 136.402,65.7089 133.068,70.7089 129.5,75.5C 127.065,72.405 125.065,69.0717 123.5,65.5C 129.129,55.5233 134.795,45.5233 140.5,35.5C 145.167,34.1667 149.833,34.1667 154.5,35.5C 151.406,39.9264 148.739,44.593 146.5,49.5C 145.711,49.7828 145.044,50.2828 144.5,51C 151.167,51.6667 157.833,51.6667 164.5,51C 165.252,50.3292 165.586,49.4959 165.5,48.5C 170.766,38.8073 176.433,29.3073 182.5,20C 165.823,19.1671 149.157,19.3337 132.5,20.5C 123.392,35.732 114.059,50.732 104.5,65.5C 103.839,66.7175 103.172,68.0508 102.5,69.5C 101.604,68.4937 100.938,68.4937 100.5,69.5C 101.407,72.4212 101.74,75.4212 101.5,78.5C 89.7335,59.1462 78.0668,39.6462 66.5,20C 60.4724,19.1697 54.4724,19.3364 48.5,20.5C 56.028,32.227 63.028,44.227 69.5,56.5C 70.038,58.1172 70.3713,59.7839 70.5,61.5C 67.4299,61.6323 64.4299,61.299 61.5,60.5C 53.5113,47.1944 45.5113,33.8611 37.5,20.5C 31.5684,19.0072 25.5684,18.5072 19.5,19C 30.7071,38.5819 42.0404,58.0819 53.5,77.5C 63.5,78.1667 73.5,78.8333 83.5,79.5C 90.6346,91.7979 97.9679,103.965 105.5,116C 103.709,118.414 102.043,120.914 100.5,123.5C 99.9984,124.521 99.3317,124.688 98.5,124C 91.6061,112.612 84.9394,101.112 78.5,89.5C 78.1649,85.4889 76.1649,84.4889 72.5,86.5C 67.7863,86.1734 63.1196,86.5067 58.5,87.5C 58.6236,88.1067 58.9569,88.44 59.5,88.5C 61.0828,90.6626 62.4161,92.9959 63.5,95.5C 63.2865,97.1439 63.6198,98.6439 64.5,100C 63.6919,100.308 63.0253,100.808 62.5,101.5C 64.7183,104.267 65.385,107.267 64.5,110.5C 63.5832,109.873 62.5832,109.539 61.5,109.5C 53.1388,94.8162 44.8055,80.1496 36.5,65.5C 34.3623,58.4712 31.3623,52.4712 27.5,47.5C 26.5481,45.9547 26.2148,44.288 26.5,42.5C 25.1667,42.5 23.8333,42.5 22.5,42.5C 16.3151,32.7973 10.6485,22.7973 5.5,12.5C 37.1649,11.8333 68.9982,11.5 101,11.5C 133.174,11.5001 165.007,12.1668 196.5,13.5 Z M 78.5,20.5 C 93.3277,19.3389 108.328,19.1723 123.5,20C 122.748,20.6708 122.414,21.5041 122.5,22.5C 115.191,33.7685 107.857,45.1018 100.5,56.5C 93.1412,44.4362 85.8079,32.4362 78.5,20.5 Z"/></g>
<g><path style="opacity:0.137" fill="#907c6d" d="M 122.5,22.5 C 122.414,21.5041 122.748,20.6708 123.5,20C 108.328,19.1723 93.3277,19.3389 78.5,20.5C 77.9569,20.44 77.6236,20.1067 77.5,19.5C 93.1525,18.5006 108.819,18.1673 124.5,18.5C 124.843,20.4832 124.176,21.8166 122.5,22.5 Z"/></g>
<g><path style="opacity:0.071" fill="#847162" d="M 165.5,48.5 C 165.586,49.4959 165.252,50.3292 164.5,51C 157.833,51.6667 151.167,51.6667 144.5,51C 145.044,50.2828 145.711,49.7828 146.5,49.5C 151.985,50.6517 157.651,50.8184 163.5,50C 164.044,49.2828 164.711,48.7828 165.5,48.5 Z"/></g>
<g><path style="opacity:0.998" fill="#6d5444" d="M 22.5,42.5 C 23.8333,42.5 25.1667,42.5 26.5,42.5C 26.2148,44.288 26.5481,45.9547 27.5,47.5C 31.3623,52.4712 34.3623,58.4712 36.5,65.5C 31.5966,58.0358 26.9299,50.3691 22.5,42.5 Z"/></g>
<g><path style="opacity:0.875" fill="#6f594b" d="M 69.5,56.5 C 71.1786,57.9997 72.5119,59.833 73.5,62C 70.2617,63.3677 66.9283,63.7011 63.5,63C 62.6195,62.2917 61.9528,61.4584 61.5,60.5C 64.4299,61.299 67.4299,61.6323 70.5,61.5C 70.3713,59.7839 70.038,58.1172 69.5,56.5 Z"/></g>
<g><path style="opacity:0.886" fill="#816f5b" d="M 78.5,89.5 C 77.6851,88.5707 76.8518,87.5707 76,86.5C 74.9887,87.3366 73.8221,87.67 72.5,87.5C 72.5,87.1667 72.5,86.8333 72.5,86.5C 76.1649,84.4889 78.1649,85.4889 78.5,89.5 Z"/></g>
<g><path style="opacity:0.039" fill="#b8a69b" d="M 72.5,86.5 C 72.5,86.8333 72.5,87.1667 72.5,87.5C 67.9677,87.1818 63.6344,87.5151 59.5,88.5C 58.9569,88.44 58.6236,88.1067 58.5,87.5C 63.1196,86.5067 67.7863,86.1734 72.5,86.5 Z"/></g>
<g><path style="opacity:1" fill="#5b402f" d="M 104.5,65.5 C 112.07,78.9702 119.903,92.3036 128,105.5C 128.667,106.833 129.333,106.833 130,105.5C 131.609,102.593 133.442,99.9266 135.5,97.5C 135.721,98.7348 136.388,99.7348 137.5,100.5C 136.391,102.214 137.058,102.881 139.5,102.5C 139.5,103.5 139.5,104.5 139.5,105.5C 125.887,127.465 112.22,149.465 98.5,171.5C 86.1699,150.841 73.8366,130.175 61.5,109.5C 62.5832,109.539 63.5832,109.873 64.5,110.5C 65.385,107.267 64.7183,104.267 62.5,101.5C 63.0253,100.808 63.6919,100.308 64.5,100C 63.6198,98.6439 63.2865,97.1439 63.5,95.5C 75.4741,115.437 87.4741,135.437 99.5,155.5C 107.737,142.703 115.737,129.703 123.5,116.5C 115.712,104.058 108.379,91.391 101.5,78.5C 101.74,75.4212 101.407,72.4212 100.5,69.5C 100.938,68.4937 101.604,68.4937 102.5,69.5C 103.172,68.0508 103.839,66.7175 104.5,65.5 Z"/></g>
</svg>
